HIERARCHY
ROOT root
{
	OFFSET	0	13.1	24.9
	CHANNELS 6  Xposition Yposition Zposition Xrotation Yrotation Zrotation
	JOINT spine_1
	{
		OFFSET	0	9.99999	0
		CHANNELS 3  Xrotation Yrotation Zrotation
		JOINT spine_2
		{
			OFFSET	0	112	-10
			CHANNELS 3  Xrotation Yrotation Zrotation
			JOINT spine_3
			{
				OFFSET	0	206.5	19.3
				CHANNELS 3  Xrotation Yrotation Zrotation
				JOINT spine_4
				{
					OFFSET	0	110.4	14.6
					CHANNELS 3  Xrotation Yrotation Zrotation
					JOINT neck_1
					{
						OFFSET	0	71.8	-50.3
						CHANNELS 3  Xrotation Yrotation Zrotation
						JOINT neck_2
						{
							OFFSET	0	86.2	-25.8
							CHANNELS 3  Xrotation Yrotation Zrotation
							JOINT head_ee
							{
								OFFSET	0	179.8	-8.7
								CHANNELS 3  Xrotation Yrotation Zrotation
								End Site
								{
									OFFSET	1	0	0
								}
							}
						}
					}
					JOINT left_clavicle
					{
						OFFSET	-43.2	22.4	-70.8
						CHANNELS 3  Xrotation Yrotation Zrotation
						JOINT left_shoulder
						{
							OFFSET	-93.9	-5.79999	48.7
							CHANNELS 3  Xrotation Yrotation Zrotation
							JOINT left_elbow
							{
								OFFSET	-291.4	-30.8	15.2
								CHANNELS 3  Xrotation Yrotation Zrotation
								JOINT left_lowarm_twist
								{
									OFFSET	-110.7	-3.89999	13.6
									CHANNELS 3  Xrotation Yrotation Zrotation
									JOINT left_hand
									{
										OFFSET	-110.7	-3.89999	13.6
										CHANNELS 3  Xrotation Yrotation Zrotation
										JOINT left_ee
										{
											OFFSET	-80.8	-5.10001	12.1
											CHANNELS 3  Xrotation Yrotation Zrotation
											End Site
											{
												OFFSET	1	0	0
											}
										}
									}
								}
							}
						}
					}
					JOINT right_clavicle
					{
						OFFSET	43.2	22.4	-70.8
						CHANNELS 3  Xrotation Yrotation Zrotation
						JOINT right_shoulder
						{
							OFFSET	93.9	-5.79999	48.7
							CHANNELS 3  Xrotation Yrotation Zrotation
							JOINT right_elbow
							{
								OFFSET	291.4	-30.8	15.2
								CHANNELS 3  Xrotation Yrotation Zrotation
								JOINT right_lowarm_twist
								{
									OFFSET	110.7	-3.89999	13.6
									CHANNELS 3  Xrotation Yrotation Zrotation
									JOINT right_hand
									{
										OFFSET	110.7	-3.89999	13.6
										CHANNELS 3  Xrotation Yrotation Zrotation
										JOINT right_ee
										{
											OFFSET	80.8	-5.10001	12.1
											CHANNELS 3  Xrotation Yrotation Zrotation
											End Site
											{
												OFFSET	1	0	0
											}
										}
									}
								}
							}
						}
					}
				}
			}
		}
	}
	JOINT left_hip
	{
		OFFSET	-82.8	-127.5	0.300001
		CHANNELS 3  Xrotation Yrotation Zrotation
		JOINT left_knee
		{
			OFFSET	-28.2	-396.7	2.2
			CHANNELS 3  Xrotation Yrotation Zrotation
			JOINT left_ankle
			{
				OFFSET	-11.7	-411.3	35.4
				CHANNELS 3  Xrotation Yrotation Zrotation
				JOINT left_toes
				{
					OFFSET	0	-60	-88.6
					CHANNELS 3  Xrotation Yrotation Zrotation
					JOINT left_foot_ee
					{
						OFFSET	-22.5	-16.5	-42.2
						CHANNELS 3  Xrotation Yrotation Zrotation
						End Site
						{
							OFFSET	1	0	0
						}
					}
				}
			}
		}
	}
	JOINT right_hip
	{
		OFFSET	82.8	-127.5	0.300001
		CHANNELS 3  Xrotation Yrotation Zrotation
		JOINT right_knee
		{
			OFFSET	28.2	-396.7	2.2
			CHANNELS 3  Xrotation Yrotation Zrotation
			JOINT right_ankle
			{
				OFFSET	11.7	-411.3	35.4
				CHANNELS 3  Xrotation Yrotation Zrotation
				JOINT right_toes
				{
					OFFSET	0	-60	-88.6
					CHANNELS 3  Xrotation Yrotation Zrotation
					JOINT right_foot_ee
					{
						OFFSET	22.5	-16.5	-42.2
						CHANNELS 3  Xrotation Yrotation Zrotation
						End Site
						{
							OFFSET	1	0	0
						}
					}
				}
			}
		}
	}
}
MOTION
Frames: 16
Frame Time: 0.02
2657.3 699.679 -1369.94 19.3651 57.1786 -15.8259 -8.58406 0.0863933 0.934773 -8.58358 0.0267388 0.938376 -8.58191 -0.306929 0.887167 -8.58297 -0.162972 0.924503 -9.90926 19.6867 9.93941 -9.94959 30.4834 14.5825 -0.0 0.0 -0.0 7.59355 9.19177 14.4892 7.7936 -10.491 49.0023 3.95552 -62.9448 2.42192 -31.5087 -2.09665 3.38656 1.39335 -12.4585 4.09359 -0.0 0.0 -0.0 11.5841 20.1045 -22.9748 -11.8957 22.2935 -50.5053 0.509382 14.1622 -0.0632766 -11.2372 0.528629 -1.33364 6.3014 -22.1066 -54.975 0.0 0.0 0.0 14.43 25.7288 -16.3351 7.35163 -0.37174 -1.06565 -17.6369 -20.1583 3.02507 -4.21376 0.0 0.0 -0.0 0.0 -0.0 -21.681 21.8488 8.69405 -21.8551 -0.268986 -3.32275 37.2158 32.2325 5.7991 -7.7822 0.0 0.0 0.0 0.0 0.0 
2641.08 707.715 -1367.83 19.1971 57.6191 -15.3966 -8.4018 0.0386081 1.00143 -8.40124 -0.0251908 1.00186 -8.4004 -0.375026 0.929371 -8.40154 -0.22355 0.97693 -9.71245 19.0888 10.9776 -9.63033 28.576 15.344 -0.0 0.0 -0.0 7.61535 10.4499 14.4595 5.82598 -10.4894 49.4953 3.95513 -62.9425 2.42158 -32.897 -2.22936 3.50527 1.29083 -12.4954 3.38564 -0.0 0.0 -0.0 11.6923 20.4223 -23.1989 -11.9555 22.688 -50.9154 0.503984 14.0181 -0.0619625 -12.3567 0.595432 -1.46034 6.42402 -22.4235 -56.4271 0.0 0.0 0.0 14.2004 25.7428 -16.4939 7.12497 -0.358244 -1.03354 -19.9254 -20.1918 3.42155 -3.43934 0.0 0.0 -0.0 0.0 -0.0 -20.6289 20.7057 8.85044 -23.5266 -0.23712 -3.57726 37.0329 32.8457 5.82725 -8.01872 0.0 0.0 0.0 0.0 0.0 
2620.6 715.552 -1363.93 18.5396 58.2384 -14.5234 -8.18157 0.0243709 1.01471 -8.181 -0.0402438 1.01421 -8.18045 -0.38986 0.937152 -8.1816 -0.236969 0.986956 -10.0104 17.6592 11.3724 -9.87131 25.6751 15.4119 -0.0 0.0 -0.0 7.977 10.8665 15.081 4.30382 -10.5432 50.0277 3.84901 -62.3072 2.32734 -35.5341 -2.48922 3.72182 1.06956 -8.15881 3.76037 -0.0 0.0 -0.0 12.1512 20.4239 -24.2506 -12.6827 23.4935 -50.3796 0.461238 12.8704 -0.0520234 -13.1166 0.642186 -1.54561 5.93919 -22.6255 -51.1287 0.0 0.0 0.0 13.5363 26.473 -15.5465 7.09396 -0.356408 -1.02914 -19.0013 -19.0563 3.22733 -1.32568 0.0 0.0 -0.0 0.0 -0.0 -20.0977 20.6711 9.21348 -25.1328 -0.199516 -3.82087 34.5351 30.8985 5.40671 -8.13463 0.0 0.0 0.0 0.0 0.0 
2599.39 720.531 -1362.04 17.6004 58.3577 -12.9832 -8.15242 0.0521536 0.98868 -8.15187 -0.0108612 0.989995 -8.15081 -0.353416 0.924833 -8.15195 -0.202928 0.969037 -9.31014 17.5015 11.2331 -9.12978 25.2505 15.094 -0.0 0.0 -0.0 7.8247 10.8656 14.8086 2.81877 -10.3698 50.3208 3.73584 -61.5988 2.22746 -35.949 -2.53101 3.7548 0.837764 -7.12477 2.63277 -0.0 0.0 -0.0 12.0196 20.2248 -23.9628 -12.6533 23.2797 -51.1194 0.602141 16.6091 -0.0878923 -10.9324 0.510874 -1.29892 5.91454 -21.8038 -50.7939 0.0 0.0 0.0 13.4528 25.7611 -15.8822 6.60547 -0.327794 -0.959729 -20.9167 -19.7081 3.57578 -2.83784 0.0 0.0 -0.0 0.0 -0.0 -19.5142 20.4906 9.40839 -26.957 -0.148539 -4.09617 35.1512 32.2324 5.57225 -7.18695 0.0 0.0 0.0 0.0 0.0 
2579.61 723.631 -1355.87 16.0035 59.0292 -11.0912 -7.84163 0.0746764 0.961785 -7.84112 0.013327 0.964587 -7.8397 -0.316972 0.911122 -7.84082 -0.169106 0.949743 -5.41365 16.9159 8.41284 -5.15597 25.0051 11.4925 -0.0 0.0 -0.0 8.27284 11.138 15.5913 1.96005 -10.5528 50.8524 3.60062 -60.7073 2.10901 -37.7073 -2.7107 3.89118 0.653538 -5.27591 2.1704 -0.0 0.0 -0.0 11.6856 18.4149 -23.3177 -13.7728 24.4758 -50.5138 0.742561 20.1957 -0.132243 -10.0304 0.459416 -1.19564 5.306 -20.0561 -44.7681 0.0 0.0 0.0 13.6026 25.9862 -14.9355 5.93088 -0.289257 -0.863488 -16.9248 -17.1349 2.82351 -0.325464 0.0 0.0 -0.0 0.0 -0.0 -18.9414 20.5372 8.60081 -26.5456 -0.1608 -4.03423 28.241 28.0101 4.47165 -10.2154 0.0 0.0 0.0 0.0 0.0 
2566.69 725.695 -1351.29 15.0652 59.7262 -10.3986 -7.51478 0.109671 0.941816 -7.51429 0.0495211 0.946885 -7.5123 -0.271716 0.908416 -7.51343 -0.124846 0.939925 -5.91348 16.187 8.30261 -5.6948 23.8688 11.339 -0.0 0.0 -0.0 8.31217 11.1096 15.664 0.700015 -11.8564 50.5663 3.53316 -60.2433 2.05032 -38.7085 -2.81488 3.96637 0.545926 -4.04082 1.96465 -0.0 0.0 -0.0 11.7618 17.5521 -23.5408 -14.7174 25.2769 -49.9626 0.832694 22.4156 -0.164999 -9.2994 0.418911 -1.11135 5.04614 -19.3655 -42.373 0.0 0.0 0.0 13.0976 25.438 -13.9232 5.78222 -0.280917 -0.842219 -15.837 -15.7031 2.60929 0.349777 -0.0 -0.0 -0.0 0.0 -0.0 -18.0354 20.6775 8.53502 -26.7822 -0.153803 -4.06987 24.7431 26.5501 3.94232 -11.1491 0.0 0.0 0.0 0.0 0.0 
2548.93 730.547 -1348.06 14.2083 60.6087 -9.39176 -7.40068 0.209168 0.886811 -7.40025 0.152316 0.898323 -7.39669 -0.156753 0.897559 -7.39782 -0.0130394 0.91105 -4.89643 15.8853 6.78463 -4.67853 24.1713 9.59514 -0.0 0.0 -0.0 8.71577 10.6684 16.4277 0.605772 -11.5858 51.0455 3.29002 -58.4542 1.84112 -39.4666 -2.89461 4.02208 0.304305 -3.55187 0.544019 -0.0 0.0 -0.0 11.6599 15.8849 -23.388 -15.799 26.0946 -49.8441 0.949774 25.1961 -0.21227 -9.11746 0.408998 -1.0903 4.40701 -19.1002 -37.0887 0.0 0.0 0.0 12.6124 26.1625 -12.7751 5.60474 -0.271034 -0.816801 -12.7583 -14.3825 2.07487 2.05173 -0.0 -0.0 -0.0 0.0 -0.0 -17.5015 19.8734 8.00172 -26.2211 -0.170161 -3.9853 22.8895 26.7822 3.69905 -9.17162 0.0 0.0 0.0 0.0 0.0 
2540.33 730.896 -1343.15 11.7056 61.4318 -7.08285 -7.04694 0.356334 0.816635 -7.04662 0.303649 0.837652 -7.04106 0.011705 0.89091 -7.04214 0.152255 0.877882 -4.33688 15.424 5.28323 -4.12722 24.3167 7.90374 -0.0 0.0 -0.0 8.60509 10.2556 16.2604 -0.075185 -12.3413 51.1022 3.25949 -58.2158 1.81514 -40.0953 -2.9613 4.06749 0.0469988 -2.90764 -0.913804 -0.0 0.0 -0.0 11.6517 15.1614 -23.3979 -15.6375 26.1169 -49.3739 1.00348 26.4311 -0.235657 -9.03166 0.404346 -1.08036 4.02957 -19.0551 -34.182 0.0 0.0 0.0 13.4245 25.4583 -12.2808 5.34621 -0.256778 -0.779721 -11.6321 -13.9445 1.8831 2.56049 -0.0 -0.0 -0.0 0.0 -0.0 -17.4929 19.1712 8.35695 -23.6476 -0.234526 -3.59565 19.5608 25.5416 3.17797 -9.40906 0.0 0.0 0.0 0.0 0.0 
2526.01 734.841 -1336.13 9.77384 62.4489 -5.99732 -6.88917 0.336966 0.924527 -6.88874 0.277456 0.944093 -6.88282 -0.0452829 0.982973 -6.88416 0.11052 0.97779 -5.26597 15.711 6.07109 -5.0873 24.476 8.91372 -0.0 0.0 -0.0 8.26241 9.63416 15.6816 -2.60466 -14.6262 50.8775 3.43917 -59.574 1.969 -41.5174 -3.11396 4.1675 -0.138075 -2.79488 -2.10987 -0.0 0.0 -0.0 11.8929 14.745 -23.9618 -13.1735 25.3973 -49.0364 0.903821 24.119 -0.193098 -6.8613 0.291675 -0.826688 4.01685 -17.8219 -33.8078 0.0 0.0 0.0 13.3331 23.8138 -10.9777 4.37801 -0.204884 -0.640305 -11.5702 -16.4159 1.90909 3.69313 -0.0 -0.0 -0.0 0.0 -0.0 -17.5327 18.9033 9.24599 -22.3734 -0.2599 -3.40177 14.9884 23.4737 2.43871 -9.84089 0.0 0.0 0.0 0.0 0.0 
2512.13 736.942 -1331.03 10.16 64.1609 -6.13065 -6.84052 0.289549 0.904701 -6.8401 0.231396 0.92129 -6.83514 -0.0806183 0.946476 -6.83638 0.0698647 0.94733 -5.50389 14.6081 4.17005 -5.38714 23.895 6.85287 -0.0 0.0 -0.0 8.41858 9.64814 15.9661 -2.02829 -14.426 52.1913 3.35749 -58.9698 1.89878 -41.5574 -3.11829 4.17025 -0.241979 -2.95675 -2.87777 -0.0 0.0 -0.0 11.9377 14.7221 -24.0647 -15.2196 26.0808 -48.3088 1.0206 26.8195 -0.243331 -8.86601 0.395408 -1.06115 3.2126 -19.7915 -28.4541 0.0 0.0 0.0 12.5517 22.6695 -9.64578 5.09235 -0.242943 -0.74325 -10.8069 -15.1267 1.7632 4.31607 -0.0 -0.0 -0.0 0.0 -0.0 -17.4321 18.3986 8.71799 -22.6593 -0.254582 -3.44531 12.8951 23.708 2.12419 -9.84657 0.0 0.0 0.0 0.0 0.0 
2495.36 738.371 -1329.08 10.3028 65.5182 -6.53021 -6.72718 0.289147 0.848612 -6.72681 0.234564 0.86529 -6.72217 -0.0576547 0.894661 -6.72328 0.0843581 0.89254 -6.10161 14.4559 3.28171 -6.03115 24.3815 6.04951 -0.0 0.0 -0.0 8.31591 9.69518 15.7751 -2.56761 -15.0468 53.1007 3.40691 -59.3379 1.94121 -42.0142 -3.16787 4.20154 -0.433471 -2.45968 -3.95326 -0.0 0.0 -0.0 12.0197 14.708 -24.2525 -15.3458 26.2895 -48.9541 0.999422 26.3387 -0.233854 -8.72773 0.387989 -1.04509 2.89969 -20.5681 -26.4978 0.0 0.0 0.0 11.1006 22.5737 -8.12494 4.78504 -0.226413 -0.699021 -9.2483 -14.5979 1.49945 5.38447 -0.0 -0.0 -0.0 0.0 -0.0 -17.8156 18.245 8.59814 -23.3806 -0.240199 -3.55507 9.29867 22.9827 1.54393 -10.3327 0.0 0.0 0.0 0.0 0.0 
2485.71 742.186 -1323.92 9.5583 66.2675 -6.20033 -6.5866 0.114075 0.740482 -6.5863 0.066726 0.74624 -6.58474 -0.17628 0.728185 -6.58548 -0.0590675 0.746885 -7.8223 14.0485 3.05957 -7.86112 24.0797 6.09184 -0.0 0.0 -0.0 8.22861 9.49102 15.6296 -3.87126 -16.1466 53.2242 3.38153 -59.1499 1.9194 -42.6249 -3.23455 4.24274 -0.411503 -2.63199 -3.87948 -0.0 0.0 -0.0 11.9347 14.6835 -24.0591 -15.0956 26.3096 -48.5819 0.999286 26.3357 -0.233794 -8.76072 0.389756 -1.04892 2.68834 -22.8042 -25.6251 0.0 0.0 0.0 10.4297 21.3629 -7.02536 4.65407 -0.219439 -0.680143 -8.15825 -15.4359 1.3289 5.29492 -0.0 -0.0 -0.0 0.0 -0.0 -17.054 19.1674 9.57358 -23.4177 -0.239424 -3.5607 3.41312 23.0321 0.579404 -9.27859 0.0 0.0 0.0 0.0 0.0 
2472.63 740.231 -1322.35 8.49014 67.1583 -5.40867 -5.97789 0.107533 0.651663 -5.97766 0.0658494 0.657185 -5.9764 -0.141688 0.6451 -5.97698 -0.0380305 0.65938 -8.30982 13.9174 2.65609 -8.38524 24.1943 5.76777 -0.0 0.0 -0.0 8.03094 9.5279 15.2663 -5.42706 -16.7252 53.3778 3.43894 -59.5723 1.96879 -42.9053 -3.2653 4.26142 -0.364588 -2.27256 -3.40949 -0.0 0.0 -0.0 11.8158 14.3316 -23.7991 -15.4934 26.2288 -49.4083 0.979805 25.8899 -0.225219 -9.15585 0.411084 -1.09474 2.44482 -26.2467 -24.8369 0.0 0.0 0.0 9.40855 20.1679 -5.88842 5.0193 -0.238992 -0.732744 -6.0457 -14.7057 0.975547 6.32219 -0.0 -0.0 -0.0 0.0 -0.0 -17.4339 20.1632 11.1563 -22.8087 -0.251717 -3.46806 -0.967937 25.0386 -0.170236 -8.91837 0.0 0.0 0.0 0.0 0.0 
2460.28 738.594 -1319.28 6.99424 67.0091 -4.09645 -5.50797 0.235545 0.741733 -5.50768 0.18787 0.755217 -5.5045 -0.0497798 0.776639 -5.50533 0.0734968 0.774755 -9.00838 14.5134 2.39611 -9.14969 25.6019 5.8135 -0.0 0.0 -0.0 8.19467 9.99409 15.5334 -6.54574 -17.2023 52.8665 3.44879 -59.6437 1.97729 -43.6059 -3.34255 4.30744 -0.351229 -2.17069 -3.27598 -0.0 0.0 -0.0 11.556 14.1624 -23.2142 -15.3183 26.0286 -50.6018 0.956122 25.3434 -0.21498 -9.48929 0.429329 -1.1333 2.32097 -27.3921 -24.3133 0.0 0.0 0.0 9.8504 19.5911 -5.57265 3.30006 -0.149896 -0.4841 -3.38187 -12.248 0.533323 6.00185 -0.0 -0.0 -0.0 0.0 -0.0 -16.8237 21.7191 12.0403 -24.3846 -0.217883 -3.70752 -4.36788 27.0823 -0.794104 -8.07962 0.0 0.0 0.0 0.0 0.0 
2444.61 737.352 -1313.69 6.18482 66.9957 -3.5987 -5.17563 0.296405 0.846275 -5.17526 0.241956 0.863419 -5.17071 -0.0257941 0.896307 -5.17181 0.116079 0.889133 -9.36099 14.2977 1.99813 -9.53085 25.5175 5.45398 -0.0 0.0 -0.0 7.9507 9.16032 15.1424 -7.16992 -17.7695 53.4895 3.44287 -59.6009 1.97219 -44.3918 -3.42987 4.35794 -0.368568 -0.570824 -2.70644 -0.0 0.0 -0.0 11.4259 13.4886 -22.9387 -16.0187 26.1568 -50.829 0.945995 25.1082 -0.210664 -10.0913 0.462837 -1.20263 2.23628 -29.3278 -24.2015 0.0 0.0 0.0 9.09732 19.9811 -4.61034 2.81232 -0.125986 -0.413095 -0.422491 -12.362 0.0662021 5.45063 -0.0 -0.0 -0.0 0.0 -0.0 -16.6435 22.5421 12.8482 -24.9808 -0.203368 -3.79785 -9.47892 25.4582 -1.70641 -8.12735 0.0 0.0 0.0 0.0 0.0 
2431.1 736.972 -1315.21 5.03707 66.3593 -2.66277 -4.8771 0.300874 0.897292 -4.87669 0.24317 0.914616 -4.87184 -0.0349299 0.945743 -4.87307 0.114864 0.939392 -10.6463 14.7433 2.92862 -10.9084 25.9221 6.77055 -0.0 0.0 -0.0 7.86391 9.23105 14.9797 -7.00817 -17.8599 53.4194 3.29275 -58.4754 1.84345 -44.5972 -3.45281 4.37094 -0.494003 1.86809 -2.49639 -0.0 0.0 -0.0 11.2628 12.4649 -22.5945 -15.7083 25.5455 -51.9545 0.971898 25.708 -0.221778 -9.18367 0.412598 -1.09796 2.26485 -29.1703 -24.3416 0.0 0.0 0.0 8.24934 20.4157 -4.03958 2.2621 -0.099741 -0.332759 2.19199 -10.435 -0.336918 3.2529 -0.0 -0.0 -0.0 0.0 -0.0 -16.5273 23.1797 12.9551 -24.981 -0.203363 -3.79789 -11.8651 27.9795 -2.2115 -7.43075 0.0 0.0 0.0 0.0 0.0 
